<?xml version="1.0" standalone="no"?>
<!DOCTYPE svg PUBLIC "-//W3C//DTD SVG 20010904//EN"
 "http://www.w3.org/TR/2001/REC-SVG-20010904/DTD/svg10.dtd">
<svg version="1.0" xmlns="http://www.w3.org/2000/svg"
 width="300.000000pt" height="295.000000pt" viewBox="0 0 300.000000 295.000000"
 preserveAspectRatio="xMidYMid meet">
<metadata>
Created by potrace 1.10, written by Peter Selinger 2001-2011
https://picsvg.com/
</metadata>
<g transform="translate(0.000000,295.000000) scale(0.100000,-0.100000)"
 fill="#0f172a" stroke="none">
<path d="M1180 2555 l-305 -305 375 -375 375 -375 110 110 109 109 -249 251
-249 251 77 77 77 77 70 -70 c38 -38 70 -74 70 -79 0 -6 -25 -35 -55 -66 l-55
-55 113 -113 112 -112 180 180 179 181 -309 309 c-171 171 -312 310 -315 310
-3 -0 -142 -137 -310 -305z"/>
<path d="M415 1800 l-309 -311 304 -304 305 -305 363 364 c333 332 363 365
351 382 -7 10 -55 60 -107 109 l-93 90 -240 -242 c-131 -134 -243 -243 -247
-243 -4 0 -40 33 -80 73 l-72 72 75 75 75 74 60 -59 60 -60 118 118 117 117
-180 180 c-99 99 -182 180 -185 180 -3 0 -145 -140 -315 -310z"/>
<path d="M1903 1709 c-205 -203 -372 -373 -372 -377 1 -4 51 -54 111 -112
l108 -104 253 252 252 252 75 -75 74 -75 -74 -75 -74 -75 -56 55 c-31 30 -60
55 -65 55 -13 0 -225 -212 -225 -225 0 -6 76 -86 169 -179 155 -155 171 -168
188 -155 10 8 149 147 309 309 224 225 290 298 284 310 -5 8 -138 144 -297
302 l-288 287 -372 -370z"/>
<path d="M1237 1333 l-107 -108 246 -246 245 -245 -78 -77 -78 -76 -75 74 -75
75 60 60 60 60 -108 108 -107 107 -170 -170 c-93 -93 -170 -173 -170 -176 0
-10 564 -579 573 -579 11 0 597 588 597 598 0 8 -692 702 -700 702 -3 0 -53
-48 -113 -107z"/>
</g>
</svg>
